<?xml version="1.0" encoding="iso-8859-1"?>
<!-- Uploaded to: SVG Repo, www.svgrepo.com, Generator: SVG Repo Mixer Tools -->
<!DOCTYPE svg PUBLIC "-//W3C//DTD SVG 1.1//EN" "http://www.w3.org/Graphics/SVG/1.1/DTD/svg11.dtd">
<svg height="800px" width="800px" version="1.1" id="Capa_1" xmlns="http://www.w3.org/2000/svg"
     viewBox="0 0 44 44" xml:space="preserve">
<g>
	<path style="fill:#F0C419;" d="M22,44C9.869,44,0,34.131,0,22S9.869,0,22,0s22,9.869,22,22S34.131,44,22,44z"/>
    <path style="fill:#FBD490;" d="M22.745,32h-1.491C20.009,32,19,30.991,19,29.745V13.255C19,12.009,20.009,11,21.255,11h1.491
		C23.991,11,25,12.009,25,13.255v16.491C25,30.991,23.991,32,22.745,32z"/>
    <path style="fill:#F0C419;" d="M22,44C9.869,44,0,34.131,0,22S9.869,0,22,0s22,9.869,22,22S34.131,44,22,44z"/>
    <path style="fill:#FBD490;" d="M22.745,32h-1.491C20.009,32,19,30.991,19,29.745V13.255C19,12.009,20.009,11,21.255,11h1.491
		C23.991,11,25,12.009,25,13.255v16.491C25,30.991,23.991,32,22.745,32z"/>
</g>
</svg>